<svg xmlns="http://www.w3.org/2000/svg" width="800" height="200" viewBox="0 0 800 200">
  <defs>
    <linearGradient id="logo-a" x1="0%" x2="100%" y1="51.78%" y2="49.166%">
      <stop offset="0%" stop-color="#CE6A85"/>
      <stop offset="100%" stop-color="#985277"/>
    </linearGradient>
  </defs>
  <path fill="url(#logo-a)" d="M41.0666667,146.144444 C62.0444444,146.144444 72.5333333,129.966667 76.8,115.922222 L75.3777778,115.211111 C69.5111111,124.455556 61.5111111,129.788889 49.2444444,129.788889 C33.7777778,129.788889 22.7555556,115.922222 22.7555556,96.1888889 C22.7555556,77.7 29.8666667,61.1666667 41.2444444,61.1666667 C49.0666667,61.1666667 52.6222222,66.6777778 52.6222222,76.2777778 C52.6222222,80.1888889 51.2,83.0333333 50.4888889,84.6333333 C51.2,89.0777778 56,93.3444444 63.2888889,93.3444444 C69.8666667,93.3444444 75.0222222,87.4777778 75.0222222,80.5444444 C75.0222222,65.7888889 59.2,58.3222222 42.1333333,58.3222222 C16.8888889,58.3222222 0,78.9444444 0,101.522222 C0,126.233333 15.8222222,146.144444 41.0666667,146.144444 Z M123.644444,146.144444 C148.355556,146.144444 167.2,126.766667 167.2,102.055556 C167.2,72.5444444 144.266667,58.3222222 124,58.3222222 C97.1555556,58.3222222 79.9111111,79.1222222 79.9111111,102.055556 C79.9111111,132.1 104.444444,146.144444 123.644444,146.144444 Z M124.177778,143.3 C109.244444,143.3 103.911111,122.677778 103.911111,102.233333 C103.911111,81.4333333 110.666667,61.1666667 123.111111,61.1666667 C138.4,61.1666667 143.2,84.8111111 143.2,101.877778 C143.2,118.411111 138.4,143.3 124.177778,143.3 Z M236.888889,146.144444 L270.311111,135.477778 L270.311111,134.233333 C265.866667,132.455556 259.466667,129.433333 257.688889,128.366667 L257.688889,15.8333333 L256.266667,15.8333333 L220.888889,27.5666667 L220.888889,28.6333333 L235.466667,34.5 L235.822222,61.3444444 C230.666667,59.7444444 224.622222,58.3222222 217.511111,58.3222222 C191.377778,58.3222222 173.955556,78.0555556 173.955556,102.766667 C173.955556,130.322222 190.311111,145.788889 207.2,145.788889 C220.711111,145.788889 229.244444,139.388889 235.644444,127.655556 L235.822222,128.011111 L235.822222,146.144444 L236.888889,146.144444 Z M220,134.944444 C205.244444,134.944444 197.777778,117.522222 197.777778,99.5666667 C197.777778,80.3666667 203.288889,61.5222222 218.222222,61.5222222 C224.088889,61.5222222 231.733333,71.6555556 235.644444,81.4333333 L235.644444,121.255556 C234.222222,130.677778 227.288889,134.944444 220,134.944444 Z M379.237767,0.895124824 L382.591447,2.07614218 L313.206678,199.104875 L309.852997,197.923858 L379.237767,0.895124824 Z M311.111111,60.1 L311.111111,62.0555556 C306.133333,62.7666667 301.866667,64.7222222 301.866667,69.1666667 C301.866667,71.8333333 312.888889,98.8555556 320.533333,117.522222 C325.866667,101.344444 335.466667,72.0111111 335.466667,68.8111111 C335.466667,64.3666667 329.6,62.4111111 325.155556,62.0555556 L325.155556,62.0555556 L325.155556,60.1 L353.422222,60.1 L353.422222,62.0555556 C347.733333,62.4111111 341.688889,64.5444444 339.2,71.4777778 C335.288889,82.6777778 318.044444,134.411111 304.177778,174.055556 C300.622222,184.544444 294.755556,187.922222 288.177778,187.922222 C282.488889,187.922222 275.555556,183.655556 275.555556,177.255556 C275.555556,170.677778 280.533333,166.055556 286.4,166.055556 C291.911111,166.055556 296,170.5 299.911111,174.766667 L299.911111,174.766667 L300.444444,174.766667 C306.666667,158.055556 309.333333,151.3 309.688889,148.988889 C308.266667,145.788889 288.888889,96.7222222 277.511111,67.7444444 C275.2,65.4333333 272.888889,62.4111111 264.533333,62.0555556 L264.533333,62.0555556 L264.533333,60.1 L311.111111,60.1 Z M458.366667,88.3222222 C478.633333,88.3222222 501.566667,102.544444 501.566667,132.055556 C501.566667,156.766667 482.722222,176.144444 458.011111,176.144444 C438.811111,176.144444 414.277778,162.1 414.277778,132.055556 C414.277778,109.122222 431.522222,88.3222222 458.366667,88.3222222 Z M768.144444,71.0777778 L768.144444,90.1 L799.611111,90.1 L794.1,100.944444 L768.5,100.944444 L768.5,145.388889 C768.5,157.477778 772.944444,162.633333 781.3,162.633333 C788.233333,162.633333 793.922222,159.077778 796.411111,155.522222 L796.411111,155.522222 L797.477778,156.055556 C794.811111,163.344444 785.922222,176.144444 769.211111,176.144444 C757.833333,176.144444 746.455556,168.322222 746.455556,160.677778 C746.455556,140.703291 747.030087,120.872437 747.146312,105.832983 L747.166667,105.833333 L747.166,87.6731248 L766.722222,71.0777778 L768.144444,71.0777778 Z M529.033333,45.8333333 L528.5,108.944444 L528.855556,109.122222 C532.944444,99.5222222 544.322222,88.3222222 558.366667,88.3222222 C579.877778,88.3222222 591.966667,108.766667 591.966667,130.633333 C591.966667,156.055556 574.366667,175.788889 549.3,175.788889 C537.033333,175.788889 526.366667,172.233333 516.766667,165.122222 L516.766667,165.122222 L515.877778,165.122222 L508.233333,175.611111 L506.988889,175.611111 L506.988889,67.1666667 C504.855556,65.7444444 500.411111,63.4333333 496.322222,61.3 L496.322222,61.3 L496.322222,60.2333333 L527.611111,45.8333333 L529.033333,45.8333333 Z M638.722222,88.3222222 C658.277778,88.3222222 673.566667,97.5666667 674.811111,118.011111 L674.811111,118.011111 L620.766667,118.011111 C620.588889,119.966667 620.588889,121.744444 620.588889,123.344444 C620.588889,143.966667 631.788889,159.611111 650.1,159.611111 C660.766667,159.611111 672.144444,153.922222 674.988889,145.033333 L674.988889,145.033333 L676.766667,145.388889 C674.455556,156.411111 664.322222,175.788889 641.211111,175.788889 C614.544444,175.788889 598.722222,155.166667 598.722222,130.1 C598.722222,110.011111 613.655556,88.3222222 638.722222,88.3222222 Z M384.322222,88.1444444 L383.966667,113.033333 L384.322222,113.033333 C386.811111,107.344444 393.566667,88.3222222 408.855556,88.3222222 C415.077778,88.3222222 419.877778,93.4777778 419.877778,100.411111 C419.877778,107.522222 414.9,111.966667 410.811111,111.966667 C400.322222,111.966667 400.855556,105.033333 397.655556,105.033333 C392.5,105.033333 386.988889,109.833333 384.5,116.588889 L384.5,116.588889 L384.5,167.077778 C386.1,171.522222 394.811111,172.411111 399.611111,173.122222 L399.611111,173.122222 L399.611111,174.9 L352.5,174.9 L352.5,173.122222 C358.011111,172.588889 362.633333,169.744444 362.633333,166.011111 L362.633333,166.011111 L362.633333,110.188889 C362.633333,108.411111 362.455556,107.522222 360.855556,106.455556 C358.722222,105.211111 355.344444,103.255556 352.5,102.011111 L352.5,102.011111 L352.5,100.944444 L383.255556,88.1444444 L384.322222,88.1444444 Z M708.144444,88.1444444 L707.788889,113.033333 L708.144444,113.033333 C710.633333,107.344444 717.388889,88.3222222 732.677778,88.3222222 C738.9,88.3222222 743.7,93.4777778 743.7,100.411111 C743.7,107.522222 738.722222,111.966667 734.633333,111.966667 C724.144444,111.966667 724.677778,105.033333 721.477778,105.033333 C716.322222,105.033333 710.811111,109.833333 708.322222,116.588889 L708.322222,116.588889 L708.322222,167.077778 C709.922222,171.522222 718.633333,172.411111 723.433333,173.122222 L723.433333,173.122222 L723.433333,174.9 L676.322222,174.9 L676.322222,173.122222 C681.833333,172.588889 686.455556,169.744444 686.455556,166.011111 L686.455556,166.011111 L686.455556,110.188889 C686.455556,108.411111 686.277778,107.522222 684.677778,106.455556 C682.544444,105.211111 679.166667,103.255556 676.322222,102.011111 L676.322222,102.011111 L676.322222,100.944444 L707.077778,88.1444444 L708.144444,88.1444444 Z M457.477778,91.1666667 C445.033333,91.1666667 438.277778,111.433333 438.277778,132.233333 C438.277778,152.677778 443.611111,173.3 458.544444,173.3 C472.766667,173.3 477.566667,148.411111 477.566667,131.877778 C477.566667,114.811111 472.766667,91.1666667 457.477778,91.1666667 Z M545.566667,103.077778 C534.188889,103.077778 529.033333,110.722222 528.855556,113.744444 C528.677778,116.588889 528.5,123.344444 528.5,128.322222 C528.5,132.411111 528.677778,138.1 528.855556,142.544444 C529.388889,154.1 536.144444,172.944444 548.588889,172.944444 C560.677778,172.944444 568.322222,157.122222 568.322222,135.077778 C568.322222,118.011111 561.388889,103.077778 545.566667,103.077778 Z M637.3,91.3444444 C626.988889,91.3444444 621.3,108.944444 620.944444,115.522222 C629.3,115.522222 632.855556,115.166667 641.744444,114.811111 C643.166667,114.811111 645.833333,114.455556 647.611111,113.566667 C649.211111,111.966667 649.922222,110.188889 649.922222,107.166667 C649.922222,99.5222222 645.477778,91.3444444 637.3,91.3444444 Z"/>
</svg>
