<svg xmlns="http://www.w3.org/2000/svg" width="800" height="200" viewBox="0 0 800 200">
  <defs>
    <linearGradient id="logo-a" x1="0%" x2="100%" y1="51.78%" y2="49.166%">
      <stop offset="0%" stop-color="#CE6A85"/>
      <stop offset="100%" stop-color="#985277"/>
    </linearGradient>
  </defs>
  <path fill="url(#logo-a)" fill-rule="evenodd" d="M38.92,129.44 C46.792,129.44 53.464,127.712 58.936,124.256 C64.408,120.8 68.584,115.664 71.464,108.848 L71.464,108.848 L72.184,107.12 L68.152,103.952 L67.144,105.104 C61.672,111.44 54.568,114.608 45.832,114.608 C38.728,114.608 33.376,112.208 29.776,107.408 C26.176,102.608 24.376,95.6 24.376,86.384 C24.376,77.264 26.056,70.208 29.416,65.216 C32.776,60.224 37.48,57.728 43.528,57.728 C47.08,57.728 49.6,58.736 51.088,60.752 C52.576,62.768 53.56,65.744 54.04,69.68 C54.424,72.368 55.288,74.6 56.632,76.376 C57.976,78.152 60.28,79.04 63.544,79.04 C66.52,79.04 68.872,78.176 70.6,76.448 C72.328,74.72 73.192,72.368 73.192,69.392 C73.192,65.84 71.872,62.6 69.232,59.672 C66.592,56.744 62.968,54.44 58.36,52.76 C53.752,51.08 48.568,50.24 42.808,50.24 C34.648,50.24 27.328,51.968 20.848,55.424 C14.368,58.88 9.304,63.704 5.656,69.896 C2.008,76.088 0.184,83.072 0.184,90.848 C0.184,98.24 1.84,104.864 5.152,110.72 C8.464,116.576 13.072,121.16 18.976,124.472 C24.88,127.784 31.528,129.44 38.92,129.44 Z M117.448,129.44 C125.992,129.44 133.36,127.688 139.552,124.184 C145.744,120.68 150.448,115.928 153.664,109.928 C156.88,103.928 158.488,97.232 158.488,89.84 C158.488,82.448 156.88,75.752 153.664,69.752 C150.448,63.752 145.744,59 139.552,55.496 C133.36,51.992 125.992,50.24 117.448,50.24 C108.904,50.24 101.536,51.992 95.344,55.496 C89.152,59 84.448,63.752 81.232,69.752 C78.016,75.752 76.408,82.448 76.408,89.84 C76.408,97.232 78.016,103.928 81.232,109.928 C84.448,115.928 89.152,120.68 95.344,124.184 C101.536,127.688 108.904,129.44 117.448,129.44 Z M117.448,122.096 C111.112,122.096 106.72,118.904 104.272,112.52 C101.824,106.136 100.6,98.576 100.6,89.84 C100.6,81.2 101.824,73.688 104.272,67.304 C106.72,60.92 111.112,57.728 117.448,57.728 C123.784,57.728 128.176,60.92 130.624,67.304 C133.072,73.688 134.296,81.2 134.296,89.84 C134.296,98.48 133.048,106.016 130.552,112.448 C128.056,118.88 123.688,122.096 117.448,122.096 Z M222.76,129.44 L252.712,120.512 L252.712,117.488 L241.336,113.888 L241.336,8.48 L238.168,8.48 L206.776,15.536 L206.776,18.848 L219.016,22.88 L219.016,53.84 C213.64,51.44 208.072,50.24 202.312,50.24 C194.632,50.24 187.816,51.968 181.864,55.424 C175.912,58.88 171.28,63.704 167.968,69.896 C164.656,76.088 163,83.168 163,91.136 C163,98.336 164.44,104.864 167.32,110.72 C170.2,116.576 174.16,121.16 179.2,124.472 C184.24,127.784 189.784,129.44 195.832,129.44 C200.44,129.44 204.784,128.648 208.864,127.064 C212.944,125.48 216.472,123.248 219.448,120.368 L219.448,120.368 L220.168,120.656 L220.168,129.44 L222.76,129.44 Z M205.048,119.072 C199.576,119.072 195.304,116.36 192.232,110.936 C189.16,105.512 187.624,98.096 187.624,88.688 C187.624,79.472 189.232,72.056 192.448,66.44 C195.664,60.824 199.912,58.016 205.192,58.016 C209.32,58.016 212.656,59.648 215.2,62.912 C217.744,66.176 219.016,70.496 219.016,75.872 L219.016,75.872 L219.016,111.584 C215.272,116.576 210.616,119.072 205.048,119.072 Z M267.592,165.44 C273.448,165.44 278.2,164.192 281.848,161.696 C285.496,159.008 288.616,154.544 291.208,148.304 L291.208,148.304 L324.472,68.24 C325.624,65.552 326.704,63.536 327.712,62.192 C328.72,60.848 330.16,59.768 332.032,58.952 C333.904,58.136 336.664,57.392 340.312,56.72 L340.312,56.72 L340.312,51.68 L305.608,51.68 L305.608,56.72 C309.544,56.912 312.448,57.536 314.32,58.592 C316.192,59.648 317.128,61.136 317.128,63.056 C317.128,64.4 316.696,66.08 315.832,68.096 L315.832,68.096 L301.288,103.376 L300.568,103.376 L283.864,63.92 C283.48,63.152 283.288,62.288 283.288,61.328 C283.288,59.888 284.08,58.832 285.664,58.16 C287.248,57.488 289.864,57.008 293.512,56.72 L293.512,56.72 L293.512,51.68 L246.568,51.68 L246.568,56.72 C250.12,57.104 252.736,57.704 254.416,58.52 C256.096,59.336 257.32,60.656 258.088,62.48 L258.088,62.48 L288.904,132.032 L283.144,147.296 C282.088,150.176 280.72,152.48 279.04,154.208 C277.36,155.936 275.704,156.8 274.072,156.8 C272.728,156.8 271.744,156.464 271.12,155.792 C270.496,155.12 269.848,153.632 269.176,151.328 C268.504,148.928 267.328,147.104 265.648,145.856 C263.968,144.608 262.024,143.984 259.816,143.984 C257.224,143.984 255.04,144.824 253.264,146.504 C251.488,148.184 250.6,150.368 250.6,153.056 C250.6,156.992 252.184,160.04 255.352,162.2 C258.52,164.36 262.6,165.44 267.592,165.44 Z M462.776,50.24 C471.32,50.24 478.688,51.992 484.88,55.496 C491.072,59 495.776,63.752 498.992,69.752 C502.208,75.752 503.816,82.448 503.816,89.84 C503.816,97.232 502.208,103.928 498.992,109.928 C495.776,115.928 491.072,120.68 484.88,124.184 C478.688,127.688 471.32,129.44 462.776,129.44 C454.232,129.44 446.864,127.688 440.672,124.184 C434.48,120.68 429.776,115.928 426.56,109.928 C423.344,103.928 421.736,97.232 421.736,89.84 C421.736,82.448 423.344,75.752 426.56,69.752 C429.776,63.752 434.48,59 440.672,55.496 C446.864,51.992 454.232,50.24 462.776,50.24 Z M534.696,8.48 L534.696,60.464 L535.229319,59.9548144 C538.445983,56.9367978 541.964211,54.5865263 545.784,52.904 C549.816,51.128 554.088,50.24 558.6,50.24 C564.84,50.24 570.36,51.776 575.16,54.848 C579.96,57.92 583.704,62.216 586.392,67.736 C589.08,73.256 590.424,79.568 590.424,86.672 C590.424,94.64 588.72,101.888 585.312,108.416 C581.904,114.944 577.2,120.08 571.2,123.824 C565.2,127.568 558.6,129.44 551.4,129.44 C543.336,129.44 536.136,127.232 529.8,122.816 L529.8,122.816 L528.936,122.816 L516.552,128 L512.376,128 L512.376,22.736 L500.28,18.848 L500.28,15.536 L531.528,8.48 L534.696,8.48 Z M638.136,50.24 C649.08,50.24 657.432,53.216 663.192,59.168 C668.952,65.12 672.024,73.856 672.408,85.376 L672.408,85.376 L671.256,86.24 L618.84,86.24 L618.848847,86.8625822 C619.02034,96.1487448 620.937391,103.069217 624.6,107.624 C628.344,112.28 633.96,114.608 641.448,114.608 C645.864,114.608 650.208,113.792 654.48,112.16 C658.752,110.528 662.232,108.176 664.92,105.104 L664.92,105.104 L665.928,103.952 L669.96,107.408 L669.24,109.136 L669.025788,109.646732 C666.40665,115.739541 662.038054,120.537297 655.92,124.04 C649.632,127.64 642.504,129.44 634.536,129.44 C626.664,129.44 619.728,127.832 613.728,124.616 C607.728,121.4 603.096,116.888 599.832,111.08 C596.568,105.272 594.936,98.576 594.936,90.992 C594.936,83.024 596.76,75.944 600.408,69.752 C604.056,63.56 609.144,58.76 615.672,55.352 C622.2,51.944 629.688,50.24 638.136,50.24 Z M761.256,32.384 L765.72,33.104 L765.72,51.68 L788.04,51.68 L785.88,58.88 L765.72,58.88 L765.7205,104.5345 C765.728167,107.854167 765.824,110.204 766.008,111.584 C766.2,113.024 766.584,114.176 767.16,115.04 C768.792,117.728 771.336,119.072 774.792,119.072 C778.44,119.072 781.416,117.728 783.72,115.04 L783.72,115.04 L787.032,119.792 C784.536,122.96 781.296,125.36 777.312,126.992 C773.328,128.624 768.888,129.44 763.992,129.44 C761.112,129.44 758.304,129.08 755.568,128.36 C752.832,127.64 750.6,126.656 748.872,125.408 C746.856,123.872 745.44,121.784 744.624,119.144 C743.808,116.504 743.4,113.12 743.4,108.992 L743.4,108.992 L743.4,45.975 L761.256,32.384 Z M412.888,50.096 C416.44,50.096 419.416,51.104 421.816,53.12 C424.216,55.136 425.416,57.68 425.416,60.752 C425.416,63.632 424.552,66.056 422.824,68.024 C421.096,69.992 418.984,70.976 416.488,70.976 C413.896,70.976 411.544,70.064 409.432,68.24 C407.992,66.992 406.72,66.104 405.616,65.576 C404.512,65.048 403.384,64.784 402.232,64.784 C399.544,64.784 397.288,65.984 395.464,68.384 C394.024,70.208 393.136,71.456 392.8,72.128 C392.464,72.8 392.248,73.352 392.152,73.784 C392.056,74.216 392.008,74.528 392.008,74.72 L392.008,74.72 L392.008,120.08 L410.872,122.96 L410.872,128 L358.888,128 L358.888,122.96 L369.688,120.08 L369.688,64.64 L358.744,60.608 L358.744,57.152 L388.264,50.24 L391.288,50.24 L391.288,63.2 L391.763962,62.6546238 C395.25535,58.696121 398.768696,55.637913 402.304,53.48 C406,51.224 409.528,50.096 412.888,50.096 Z M726.616,50.096 C730.168,50.096 733.144,51.104 735.544,53.12 C737.944,55.136 739.144,57.68 739.144,60.752 C739.144,63.632 738.28,66.056 736.552,68.024 C734.824,69.992 732.712,70.976 730.216,70.976 C727.624,70.976 725.272,70.064 723.16,68.24 C721.72,66.992 720.448,66.104 719.344,65.576 C718.24,65.048 717.112,64.784 715.96,64.784 C713.272,64.784 711.016,65.984 709.192,68.384 C707.752,70.208 706.864,71.456 706.528,72.128 C706.192,72.8 705.976,73.352 705.88,73.784 C705.784,74.216 705.736,74.528 705.736,74.72 L705.736,74.72 L705.736,120.08 L724.6,122.96 L724.6,128 L672.616,128 L672.616,122.96 L683.416,120.08 L683.416,64.64 L672.472,60.608 L672.472,57.152 L701.992,50.24 L705.016,50.24 L705.016,63.2 L705.491962,62.6546238 C708.98335,58.696121 712.496696,55.637913 716.032,53.48 C719.728,51.224 723.256,50.096 726.616,50.096 Z M462.776,57.728 C456.44,57.728 452.048,60.92 449.6,67.304 C447.152,73.688 445.928,81.2 445.928,89.84 C445.928,98.576 447.152,106.136 449.6,112.52 C452.048,118.904 456.44,122.096 462.776,122.096 C469.016,122.096 473.384,118.88 475.88,112.448 C478.376,106.016 479.624,98.48 479.624,89.84 C479.624,81.2 478.4,73.688 475.952,67.304 C473.504,60.92 469.112,57.728 462.776,57.728 Z M548.664,61.472 C543.096,61.472 538.44,64.256 534.696,69.824 L534.696,69.824 L534.696,103.52 L534.70024,104.0636 C534.782213,109.2836 536.0528,113.4944 538.512,116.696 C541.056,120.008 544.392,121.664 548.52,121.664 C553.8,121.664 558.048,118.832 561.264,113.168 C564.48,107.504 566.088,100.016 566.088,90.704 C566.088,81.488 564.576,74.312 561.552,69.176 C558.528,64.04 554.232,61.472 548.664,61.472 Z M366.336701,0.672747889 L370.109592,2.00139242 L307.663299,179.327252 L303.890408,177.998608 L366.336701,0.672747889 Z M636.264,57.584 C640.392,57.584 643.56,58.88 645.768,61.472 C647.976,64.064 649.08,67.856 649.08,72.848 C649.08,75.1971765 648.909924,76.9510865 648.569772,78.1097301 L648.569772,78.1097301 L648.504,78.32 L619.128,79.328 L619.192198,78.695405 C619.910127,71.9956804 621.688727,66.8305455 624.528,63.2 C627.456,59.456 631.368,57.584 636.264,57.584 Z"/>
</svg>
