<svg xmlns="http://www.w3.org/2000/svg" width="200" height="45" viewBox="0 0 200 45">
  <path fill="#004DCE" d="M23.8961039,17.6223776 L23.4965035,17.4025974 L23.8361638,17.1228771 C26.3736264,15.0849151 27.6123876,12.6073926 27.6123876,9.77022977 C27.6123876,7.97202797 27.1528472,6.27372627 26.1938062,4.73526474 C25.2347652,3.15684316 23.996004,1.95804196 22.4175824,1.17882118 C20.8391608,0.3996004 18.8611389,0 16.3836164,0 L0,0 L0,35.7642358 L16.6633367,35.7642358 C19.2607393,35.7642358 21.4185814,35.3046953 22.997003,34.4655345 C24.6353646,33.6263736 25.9340659,32.3676324 26.8931069,30.7892108 C27.8521479,29.2107892 28.3116883,27.5124875 28.3116883,25.7542458 C28.3116883,22.2577423 26.8331668,19.5404595 23.8961039,17.6223776 Z M5.93406593,4.97502498 L16.4435564,4.97502498 C18.0819181,4.97502498 19.3806194,5.43456543 20.3996004,6.39360639 C21.4785215,7.29270729 21.978022,8.49150849 21.978022,9.95004995 C21.978022,11.3686314 21.4785215,12.5474525 20.4595405,13.4465534 C19.4405594,14.4055944 18.1418581,14.8651349 16.5034965,14.8651349 L5.93406593,14.8651349 L5.93406593,4.97502498 Z M20.959041,28.8711289 C19.8801199,29.8301698 18.4215784,30.2897103 16.5434565,30.2897103 L5.93406593,30.2897103 L5.93406593,19.9000999 L16.6033966,19.9000999 C17.9020979,19.9000999 18.9210789,20.0599401 19.7202797,20.4595405 C21.6383616,21.3586414 22.5974026,22.8971029 22.5974026,25.034965 C22.5974026,26.6733267 22.037962,27.9120879 20.959041,28.8711289 Z M88.2917083,31.7482517 L88.4115884,31.6283716 L84.0559441,28.1318681 L83.9360639,28.2917083 C82.3576424,29.9300699 80.5994006,30.6693307 78.4615385,30.6693307 C76.6633367,30.6693307 75.1848152,30.1698302 74.045954,29.1508492 C72.8671329,28.1318681 72.2877123,26.953047 72.2877123,25.3746254 L72.2877123,24.8751249 L88.8911089,24.8751249 L88.8911089,20.8591409 C88.8911089,17.7022977 87.8121878,15.044955 85.7342657,12.9470529 C83.6363636,10.8491508 80.9390609,9.79020979 77.7622378,9.79020979 C74.7052947,9.79020979 72.047952,10.8091908 69.8501499,12.8471528 C67.6523477,14.8851149 66.5734266,17.3626374 66.5734266,20.2397602 L66.5734266,24.6953047 C66.5734266,27.2327672 67.1928072,29.3906094 68.4315684,31.1288711 C70.6893107,34.3456543 74.025974,35.984016 78.3816184,35.984016 C82.4775225,35.984016 85.7542458,34.5854146 88.2917083,31.7482517 Z M72.3676324,19.7202797 C72.5874126,18.3616384 73.1668332,17.2827173 74.005994,16.4435564 C75.024975,15.4845155 76.2637363,15.024975 77.7822178,15.024975 C79.3006993,15.024975 80.5994006,15.4845155 81.6183816,16.5034965 C82.5774226,17.3426573 83.0969031,18.4215784 83.1968032,19.7202797 L83.2567433,20.0599401 L72.2877123,20.0599401 L72.3676324,19.7202797 Z M57.2227772,24.5154845 C57.2227772,26.0939061 57.0629371,27.2927073 56.6633367,27.952048 C55.7642358,29.7502498 54.2257742,30.6093906 52.0879121,30.6093906 C50.1098901,30.6093906 48.6513487,29.8101898 47.5724276,28.2317682 C47.1128871,27.4925075 46.8931069,26.3736264 46.8931069,24.8351648 L46.8931069,10.1098901 L41.2387612,10.1098901 L41.2387612,26.5534466 C41.2387612,28.4115884 41.4585415,29.7702298 41.9180819,30.7892108 C42.6573427,32.3076923 43.8361638,33.6063936 45.4145854,34.5654346 C46.9330669,35.5244755 48.6313686,36.043956 50.3896104,36.043956 C52.8271728,36.043956 54.965035,35.2447552 56.6633367,33.6663337 L57.2227772,33.1668332 L57.2227772,35.7042957 L62.8771229,35.7042957 L62.8771229,10.1098901 L57.2227772,10.1098901 L57.2227772,24.5154845 Z M31.4085914,35.7042957 L37.0629371,35.7042957 L37.0629371,0 L31.4085914,0 L31.4085914,35.7042957 Z M146.073926,11.968032 C144.315684,10.5494505 141.658342,9.83016983 138.161838,9.83016983 C133.586414,9.83016983 130.46953,11.0689311 128.791209,13.4465534 L128.671329,13.5664336 L133.126873,16.963037 L133.246753,16.8031968 C133.706294,16.003996 134.385614,15.5644356 135.344655,15.3246753 C135.844156,15.2047952 136.763237,15.1048951 138.121878,15.1048951 C140.25974,15.1048951 141.678322,15.4445554 142.477522,16.0639361 C142.937063,16.4635365 143.216783,17.3026973 143.216783,18.5414585 L143.216783,20.2997003 L136.323676,20.2997003 C134.465534,20.2997003 132.987013,20.5194805 131.908092,21.038961 C130.48951,21.6583417 129.370629,22.6773227 128.471528,23.9160839 C127.572428,25.2147852 127.172827,26.5734266 127.172827,28.0919081 C127.172827,30.4095904 128.071928,32.3276723 129.95005,33.8461538 C131.748252,35.3246753 134.125874,36.043956 137.002997,36.043956 C139.440559,36.043956 141.358641,35.4245754 142.597403,34.2457542 L143.156843,33.6863137 L143.156843,35.7242757 L148.871129,35.7242757 L148.871129,17.962038 C148.891109,15.5444555 147.932068,13.5064935 146.073926,11.968032 Z M143.196803,26.8331668 C143.196803,28.6913087 142.917083,29.2707293 142.697303,29.5504496 C142.077922,30.5094905 140.4995,30.969031 137.842158,30.969031 C134.345654,30.969031 132.587413,29.8901099 132.587413,27.8121878 C132.587413,26.6333666 133.086913,25.7142857 134.105894,25.2147852 C134.565435,24.995005 135.344655,24.8751249 136.423576,24.8751249 L143.196803,24.8751249 L143.196803,26.8331668 L143.196803,26.8331668 Z M113.866134,9.83016983 C110.809191,9.83016983 108.151848,10.8491508 105.954046,12.8871129 C103.756244,14.9250749 102.677323,17.4025974 102.677323,20.2797203 L102.677323,24.7352647 C102.677323,27.2727273 103.296703,29.4305694 104.535465,31.1688312 C106.793207,34.3856144 110.18981,36.023976 114.485514,36.023976 C118.561439,36.023976 121.838162,34.6053946 124.375624,31.7882118 L124.495504,31.6683317 L120.13986,28.1718282 L120.01998,28.2917083 C118.441558,29.9300699 116.683317,30.6693307 114.545455,30.6693307 C112.747253,30.6693307 111.268731,30.1698302 110.12987,29.1508492 C108.951049,28.1318681 108.371628,26.953047 108.371628,25.3746254 L108.371628,24.8751249 L124.975025,24.8751249 L124.975025,20.8591409 C124.975025,17.7022977 123.896104,15.044955 121.818182,12.9470529 C119.74026,10.8491508 117.082917,9.83016983 113.866134,9.83016983 Z M108.331668,20.0599401 L108.331668,20.1198801 L108.331668,20.0599401 L108.331668,20.0599401 L108.371628,19.7202797 C108.591409,18.3616384 109.170829,17.2827173 110.00999,16.4435564 C111.028971,15.4845155 112.267732,15.024975 113.846154,15.024975 C115.364635,15.024975 116.663337,15.4845155 117.682318,16.5034965 C118.641359,17.3426573 119.160839,18.4215784 119.260739,19.7202797 L119.320679,20.0599401 L108.331668,20.0599401 L108.331668,20.0599401 Z M107.132867,20.1198801 L107.132867,20.0599401 L107.132867,20.0599401 L107.132867,20.1198801 Z M195.624376,21.1388611 C194.385614,20.4595405 191.848152,20.1198801 187.932068,20 C185.454545,19.9400599 184.255744,19.1608392 184.255744,17.6823177 C184.255744,15.984016 185.554446,15.2047952 188.271728,15.2047952 C191.148851,15.2047952 193.646354,16.003996 195.624376,17.5224775 L195.744256,17.6423576 L199.240759,13.2267732 L199.120879,13.1068931 C196.003996,10.9090909 192.447552,9.83016983 188.491508,9.83016983 C185.614386,9.83016983 183.296703,10.4495504 181.658342,11.6883117 C179.56044,13.2067932 178.501499,15.3046953 178.501499,17.7422577 C178.501499,20.5594406 179.8002,22.7172827 182.337662,24.1358641 C183.296703,24.6953047 184.475524,25.034965 185.954046,25.2147852 C186.793207,25.3346653 188.091908,25.3746254 189.73027,25.4345654 C191.368631,25.4945055 192.507493,25.6543457 193.166833,26.0539461 C193.786214,26.3936064 194.125874,27.012987 194.125874,27.8521479 C194.125874,29.7702298 192.327672,30.6693307 188.711289,30.6693307 C185.654346,30.6693307 183.056943,29.7102897 180.919081,27.7322677 L180.799201,27.6123876 L176.723277,31.4485514 L176.843157,31.5684316 C179.84016,34.5054945 183.856144,36.023976 188.711289,36.023976 C192.047952,36.023976 194.705295,35.2847153 196.743257,33.8261738 C198.781219,32.3076923 199.8002,30.3296703 199.8002,27.8921079 C199.86014,24.8551449 198.441558,22.5974026 195.624376,21.1388611 Z M165.674326,9.77022977 C163.196803,9.77022977 161.038961,10.5094905 159.340659,12.027972 L158.781219,12.5274725 L158.781219,10.1098901 L153.066933,10.1098901 L153.066933,35.7042957 L158.781219,35.7042957 L158.781219,19.8801199 C158.781219,18.6413586 159.280719,17.5024975 160.35964,16.5434565 C161.438561,15.5244755 162.617383,15.0649351 163.976024,15.0649351 C165.394605,15.0649351 166.513487,15.5244755 167.532468,16.5434565 C168.551449,17.5024975 169.050949,18.6413586 169.050949,19.9400599 L169.050949,35.7042957 L174.705295,35.7042957 L174.705295,18.5214785 C174.705295,16.0839161 173.806194,14.005994 172.047952,12.3076923 C170.36963,10.6293706 168.211788,9.77022977 165.674326,9.77022977 Z M92.7872128,31.6883117 C92.7872128,33.6663337 92.6273726,35.024975 92.2877123,35.7642358 C91.2087912,38.0819181 89.4105894,39.2007992 86.6333666,39.2007992 L86.4735265,39.2007992 L86.4735265,39.3606394 C86.4735265,42.977023 86.4735265,44.6753247 86.6333666,44.955045 L86.6933067,44.955045 C90.7692308,44.955045 94.045954,43.3166833 96.5234765,40.0999001 C98.041958,38.0619381 98.7812188,35.5244755 98.7812188,32.4075924 L98.7812188,0 L92.7872128,0 L92.7872128,31.6883117 Z"/>
</svg>
