<svg xmlns="http://www.w3.org/2000/svg" width="179" height="60" viewBox="0 0 179 60">
  <path fill="#007DC1" d="M22.3555556 15.0222222C10 15.0222222 0 25.0222222 0 37.3777778 0 49.7333333 10 59.7333333 22.3555556 59.7333333 34.7111111 59.7333333 44.7111111 49.7333333 44.7111111 37.3777778 44.7111111 25.0222222 34.7111111 15.0222222 22.3555556 15.0222222zM22.3555556 48.5777778C16.1777778 48.5777778 11.1555556 43.5555556 11.1555556 37.3777778 11.1555556 31.2 16.1777778 26.1777778 22.3555556 26.1777778 28.5333333 26.1777778 33.5555556 31.2 33.5555556 37.3777778 33.5555556 43.5555556 28.5333333 48.5777778 22.3555556 48.5777778zM61.6444444 44.8888889C61.6444444 43.1111111 63.7777778 42.2666667 65.0222222 43.5111111 70.6222222 49.2 79.8666667 58.9777778 79.9111111 59.0222222 80.0444444 59.1555556 80.1777778 59.3777778 80.7111111 59.5555556 80.9333333 59.6444444 81.2888889 59.6444444 81.6888889 59.6444444L91.7777778 59.6444444C93.6 59.6444444 94.1333333 57.5555556 93.2888889 56.4888889L76.5777778 39.3777778 75.6888889 38.4888889C73.7777778 36.2222222 74 35.3333333 76.1777778 33.0222222L89.4222222 18.2222222C90.2666667 17.1555556 89.7333333 15.1111111 87.8666667 15.1111111L78.7111111 15.1111111C78.3555556 15.1111111 78.0888889 15.1111111 77.8222222 15.2 77.2888889 15.3777778 77.0666667 15.5555556 76.9333333 15.7333333 76.8888889 15.7777778 69.5555556 23.6888889 65.0222222 28.5333333 63.7777778 29.8666667 61.5555556 28.9777778 61.5555556 27.1555556L61.5555556 1.77777778C61.5555556.488888889 60.4888889 0 59.6444444 0L52.1777778 0C50.8888889 0 50.2666667.844444444 50.2666667 1.6L50.2666667 57.8666667C50.2666667 59.1555556 51.3333333 59.5111111 52.2222222 59.5111111L59.6888889 59.5111111C60.8444444 59.5111111 61.6 58.6666667 61.6 57.8222222L61.6 57.2444444 61.6 44.8888889 61.6444444 44.8888889zM122.622222 57.6L121.822222 50.1333333C121.733333 49.1111111 120.755556 48.4 119.733333 48.5777778 119.155556 48.6666667 118.577778 48.7111111 118 48.7111111 112.044444 48.7111111 107.2 44.0444444 106.844444 38.1333333 106.844444 37.9555556 106.844444 37.7333333 106.844444 37.5111111L106.844444 28.3555556C106.844444 27.1555556 107.733333 26.1777778 108.933333 26.1777778L118.933333 26.1777778C119.644444 26.1777778 120.711111 25.5555556 120.711111 24.2666667L120.711111 17.2C120.711111 15.8222222 119.822222 15.1111111 119.022222 15.1111111L108.933333 15.1111111C107.777778 15.1111111 106.844444 14.2666667 106.8 13.1111111L106.8 1.77777778C106.8 1.06666667 106.266667 0 104.888889 0L97.4666667 0C96.5333333 0 95.6444444.577777778 95.6444444 1.73333333 95.6444444 1.73333333 95.6444444 37.9555556 95.6444444 38.1333333 95.9555556 50.2222222 105.866667 59.8666667 118 59.8666667 119.022222 59.8666667 120 59.7777778 120.977778 59.6444444 122.044444 59.5111111 122.755556 58.6222222 122.622222 57.6zM176.488889 48.2222222C170.177778 48.2222222 169.2 45.9555556 169.2 37.4666667 169.2 37.4222222 169.2 37.4222222 169.2 37.3777778L169.2 16.9777778C169.2 16.2666667 168.666667 15.0666667 167.244444 15.0666667L159.777778 15.0666667C158.844444 15.0666667 157.822222 15.8222222 157.822222 16.9777778L157.822222 17.9111111C154.577778 16.0444444 150.8 14.9777778 146.8 14.9777778 134.444444 14.9777778 124.444444 24.9777778 124.444444 37.3333333 124.444444 49.6888889 134.444444 59.6888889 146.8 59.6888889 152.355556 59.6888889 157.422222 57.6444444 161.333333 54.3111111 163.422222 57.5111111 166.8 59.6444444 172.088889 59.6888889 172.977778 59.6888889 177.777778 59.8666667 177.777778 57.6L177.777778 49.6444444C177.777778 48.9777778 177.244444 48.2222222 176.488889 48.2222222zM146.844444 48.5777778C140.666667 48.5777778 135.644444 43.5555556 135.644444 37.3777778 135.644444 31.2 140.666667 26.1777778 146.844444 26.1777778 153.022222 26.1777778 158.044444 31.2 158.044444 37.3777778 158 43.5555556 152.977778 48.5777778 146.844444 48.5777778z" transform="translate(.111)"/>
</svg>
