<svg xmlns="http://www.w3.org/2000/svg" width="200" height="60" viewBox="0 0 200 60">
  <defs>
    <linearGradient id="logo-dgraph-a" x1="0%" x2="100%" y1="50%" y2="50%">
      <stop offset="0%" stop-color="#FF1800"/>
      <stop offset="100%" stop-color="#FF009B"/>
    </linearGradient>
  </defs>
  <g fill="none" fill-rule="evenodd" transform="translate(.826)">
    <path fill="url(#logo-dgraph-a)" d="M40.5461524,10.7504132 C41.1312763,9.68330579 41.4387143,8.48528926 41.4387143,7.26743802 C41.4321622,3.25645994 38.1822544,0.00655211451 34.1712763,0 C30.8311834,0.00404776543 27.9224227,2.28068255 27.1160697,5.52198347 L25.1068135,5.44264463 C11.2424052,5.44483451 0.00332188208,16.68303 1.82826801e-05,30.547438 C-0.00789723412,37.098843 2.55474739,43.3943802 7.13656558,48.0773554 C6.18449946,49.334876 5.67276392,50.8661157 5.67474739,52.4409917 C5.68129951,56.4519698 8.93120733,59.7018776 12.9421854,59.7084298 C16.0125986,59.7084298 18.6605325,57.7804959 19.7157391,55.0671074 C21.4859237,55.4546079 23.292729,55.6501179 25.10483,55.6502479 C38.9700127,55.6480577 50.2094167,44.4086537 50.2116238,30.5434711 C50.2205834,22.8079936 46.6526204,15.5029315 40.5461524,10.7543802 L40.5461524,10.7504132 Z M34.1692928,11.7282645 C33.7892334,11.7284012 33.410686,11.6804163 33.0426813,11.5854545 L30.0278052,20.332562 L34.431111,19.6145455 L28.228797,29.722314 L33.3897887,28.4687603 L16.0106152,49.1900826 C17.6626349,50.7741085 17.8485658,53.3511103 16.4410483,55.1558822 C15.0335308,56.960654 12.4888702,57.4081039 10.5501193,56.1917355 C8.61716727,54.9595716 7.932037,52.4633936 8.96515285,50.4171279 C9.9982687,48.3708623 12.4136141,47.4400483 14.5527639,48.2638017 L19.4777226,37.5193388 L14.6717722,38.8204959 L22.4866482,27.633719 L17.6826813,28.7960331 L31.3031771,10.661157 C29.8691381,9.45515776 29.3411468,7.4817974 29.9813421,5.72081697 C30.6215374,3.95983655 32.2935725,2.7862844 34.1673094,2.78280992 C36.6312769,2.78280992 38.6290242,4.77966913 38.6301193,7.24363636 C38.6301193,9.70760384 36.6332601,11.7053512 34.1692928,11.7064463 L34.1692928,11.7282645 Z"/>
    <path fill="#000" d="M64.1851606,12.0991736 L74.3881358,12.0991736 C78.355078,12.1269421 81.2965656,13.818843 83.2740862,17.1768595 C83.9802019,18.307438 84.4244995,19.4895868 84.6129292,20.7471074 C84.7597061,21.9867769 84.8112763,24.1269421 84.8112763,27.1676033 C84.8112763,30.4006612 84.6982185,32.6618182 84.4740862,33.941157 C84.3818423,34.536307 84.2207623,35.1187243 83.9940862,35.6766942 C83.7679705,36.172562 83.4942515,36.6684298 83.1729292,37.2238017 C82.3200367,38.64 81.129954,39.8122314 79.6125986,40.7345455 C78.1051606,41.726281 76.2406978,42.2221488 74.0707805,42.2221488 L64.1851606,42.2221488 L64.1851606,12.0991736 Z M68.6003672,37.9140496 L73.8843342,37.9140496 C76.36764,37.9140496 78.1686317,37.0373554 79.2912763,35.2859504 C79.7871441,34.6373554 80.098549,33.8181818 80.2314416,32.8224793 C80.3504499,31.8426446 80.4297887,30.0059504 80.4297887,27.3183471 L80.2314416,21.6892562 C80.0727639,20.5586777 79.6919375,19.6403306 79.0909457,18.9361983 C77.8611937,17.1847934 76.1256565,16.357686 73.8843342,16.391405 L68.5964003,16.391405 L68.5964003,37.9120661 L68.6003672,37.9140496 Z M104.231442,39.9709091 C102.85888,41.5735537 101.071772,42.4006612 98.8760697,42.4581818 C97.5312763,42.4284298 96.4125986,42.1328926 95.5200367,41.5695868 C94.5878052,41.0340496 93.8737557,40.4528926 93.3778879,39.8340496 C92.8324333,39.1319008 92.4397061,38.2710744 92.1997061,37.2495868 C91.9458218,36.2439669 91.8030119,34.3299174 91.8030119,31.5054545 C91.8030119,28.6254545 91.9279705,26.6757025 92.1997061,25.6542149 C92.4377226,24.648595 92.8344168,23.8016529 93.3778879,23.1153719 C93.8737557,22.4449587 94.5838383,21.8419835 95.5200367,21.3064463 C96.4125986,20.8006612 97.5312763,20.5130579 98.8760697,20.5071074 C100.93888,20.5071074 102.727971,21.3540496 104.231442,23.0459504 L104.231442,20.7709091 L108.396731,20.7709091 L108.396731,41.688595 C108.343177,44.9097521 107.444665,47.2780165 105.69921,48.7933884 C103.941855,50.3504132 101.839375,51.1279339 99.3878052,51.1279339 C96.5792102,51.0723967 94.1811937,49.8783471 92.1977226,47.5418182 L95.4367309,44.8839669 C95.9842772,45.4055168 96.6034022,45.8463177 97.2754086,46.1930579 C97.944718,46.5846925 98.7002005,46.8054105 99.475078,46.8357025 C100.89921,46.8357025 102.04764,46.4290909 102.912433,45.6119008 C103.765326,44.778843 104.205656,43.6343802 104.233425,42.1666116 L104.233425,39.9709091 L104.231442,39.9709091 Z M95.9881358,31.511405 L96.1468135,34.9090909 C96.2400367,35.557686 96.4602019,36.0991736 96.8073094,36.5256198 C97.0849953,36.9123967 97.5154086,37.2634711 98.0886317,37.5808264 C98.6340862,37.9676033 99.3183838,38.1619835 100.131607,38.1619835 C100.94483,38.1619835 101.625161,37.9676033 102.174582,37.5808264 C102.72202,37.2634711 103.134582,36.9104132 103.416235,36.5256198 C103.781722,36.0541544 104.022523,35.498198 104.1164,34.9090909 C104.195739,34.286281 104.235409,33.153719 104.235409,31.511405 L104.1164,28.0304132 C103.997392,27.3818182 103.763342,26.8561983 103.416235,26.4555372 C103.138549,26.0687603 102.72202,25.6879339 102.174582,25.3150413 C101.627144,24.997686 100.948797,24.825124 100.131607,24.7993388 C99.3382185,24.8271074 98.6380532,24.997686 98.0886317,25.3150413 C97.4935904,25.6879339 97.0889623,26.0687603 96.8073094,26.4555372 C96.4602019,26.8561983 96.2400367,27.3818182 96.1468135,28.0304132 C96.0397061,28.6809917 95.9881358,29.8413223 95.9881358,31.511405 Z M116.628136,20.7728926 L120.793425,20.7728926 L120.793425,23.0439669 L120.880698,23.0439669 C122.255243,21.3500826 124.054252,20.505124 126.283673,20.505124 C127.889354,20.5086193 129.439455,21.0934304 130.647309,22.151405 L127.604665,25.8763636 C126.724004,25.1583471 125.809623,24.7993388 124.861524,24.7993388 C123.840732,24.7795725 122.853932,25.1663013 122.118384,25.8743802 C121.265491,26.5765289 120.823177,27.7150413 120.795409,29.2859504 L120.795409,42.2102479 L116.630119,42.2102479 L116.628136,20.7728926 Z M145.340863,40.3100826 L145.261524,40.3100826 C144.871513,41.0435074 144.234075,41.6148822 143.462516,41.9226446 C142.663177,42.2796694 141.558384,42.4581818 140.144169,42.4581818 C137.823508,42.4284298 136.038384,41.797686 134.788797,40.5580165 C133.469789,39.3679339 132.809293,37.781157 132.809293,35.9127273 C132.809293,34.1276033 133.404334,32.6161983 134.528962,31.4300826 C135.65359,30.2439669 137.353425,29.6013223 139.566979,29.5715702 L145.34483,29.5715702 L145.34483,27.3104132 C145.370615,25.4142149 143.952433,24.4938843 141.084334,24.5335537 C140.043012,24.5335537 139.223838,24.6426446 138.62483,24.8647934 C137.996227,25.1280263 137.475352,25.5964649 137.147144,26.193719 L133.884334,23.6271074 C135.471111,21.4909091 137.80764,20.4495868 140.899871,20.505124 C143.510119,20.4773554 145.596731,20.9871074 147.155739,22.0323967 C148.714747,23.1034711 149.508136,24.9520661 149.535904,27.5861157 L149.535904,42.2479339 L145.370615,42.2479339 L145.340863,40.3100826 Z M145.340863,33.12 L140.332599,33.12 C137.89888,33.1755372 136.69888,34.0363636 136.722681,35.7044628 C136.722681,36.4323967 137.03607,37.0532231 137.66483,37.5649587 C138.265822,38.1302479 139.261524,38.4119008 140.649954,38.4119008 C142.399375,38.4396694 143.635078,38.2254545 144.359045,37.7712397 C145.01359,37.3150413 145.340863,36.2836364 145.340863,34.6710744 L145.340863,33.12 Z M157.697888,20.7728926 L161.863177,20.7728926 L161.863177,23.002314 C163.251607,21.4056198 165.036731,20.572562 167.218549,20.5031405 C169.763342,20.5705785 171.621855,21.5087603 172.79607,23.3117355 C173.391111,23.9861157 173.760037,24.8727273 173.974252,25.9755372 C174.172599,27.0664463 174.271772,28.9110744 174.271772,31.5292562 C174.271772,34.0621488 174.172599,35.8790083 173.974252,36.9838017 C173.76202,38.0846281 173.369293,38.9672727 172.79607,39.6912397 C172.201028,40.5163636 171.467144,41.178843 170.534913,41.6747107 C169.616566,42.1844628 168.511772,42.4680992 167.218549,42.48 C166.218915,42.4969738 165.232661,42.2485282 164.360367,41.76 C163.430063,41.3042642 162.584764,40.692429 161.861194,39.9510744 L161.861194,50.9038017 L157.695904,50.9038017 L157.695904,20.7709091 L157.697888,20.7728926 Z M165.968962,38.1619835 C166.954747,38.1619835 167.754086,37.9676033 168.309458,37.5808264 C168.862111,37.2047481 169.288044,36.6702571 169.531276,36.0476033 C169.808962,35.3573554 169.987475,34.631405 170.07078,33.8915702 L170.11045,31.511405 L170.07078,29.0042975 C169.996025,28.2639752 169.814299,27.5384074 169.531276,26.8502479 C169.303177,26.2155372 168.876731,25.6601653 168.309458,25.3170248 C167.714417,24.9719008 166.954747,24.8013223 165.968962,24.8013223 C165.036731,24.8013223 164.292929,24.9996694 163.747475,25.402314 C163.182185,25.7910744 162.741855,26.3404959 162.485987,26.9771901 C162.224861,27.6562406 162.056727,28.3674738 161.986152,29.0915702 C161.906814,29.8968595 161.867144,30.7061157 161.867144,31.5153719 C161.867144,32.2770248 161.906814,33.0347107 161.986152,33.7963636 C162.065491,34.5957025 162.232103,35.3236364 162.485987,35.9722314 C162.742289,36.609922 163.18112,37.1577712 163.747475,37.5471074 C164.292929,37.9438017 165.036731,38.1679339 165.968962,38.1679339 L165.968962,38.1619835 Z M181.765326,12.0991736 L185.930615,12.0991736 L185.930615,23.0439669 L186.009954,23.0439669 C187.302272,21.3866146 189.306191,20.4432043 191.406979,20.5031405 C193.124665,20.5031405 194.699541,21.1299174 196.12169,22.3814876 C197.535904,23.6509091 198.273756,25.507438 198.343177,27.9352066 L198.343177,42.1844628 L194.177888,42.1844628 L194.177888,29.4049587 C194.177888,27.9014876 193.791111,26.7590083 193.017557,25.9735537 C192.257888,25.1742149 191.278053,24.7735537 190.07607,24.7735537 C188.874086,24.7735537 187.890285,25.1702479 187.116731,25.9735537 C186.329293,26.7590083 185.934582,27.9034711 185.934582,29.4049587 L185.934582,42.1844628 L181.769293,42.1844628 L181.765326,12.0991736 Z"/>
  </g>
</svg>
