<svg xmlns="http://www.w3.org/2000/svg" width="200" height="52" viewBox="0 0 200 52">
  <g fill="none">
    <path fill="#061224" d="M134.666915,22.6960383 C135.467859,22.6960383 136.193714,22.8354353 136.848056,23.1160396 C137.502399,23.3966438 138.056622,23.7985417 138.510728,24.3199226 C138.963047,24.8431137 139.31346,25.469495 139.560179,26.2008764 C139.806899,26.9340683 139.928469,27.7523467 139.928469,28.6557114 L139.928469,29.7545941 L131.897583,29.7545941 C132.037032,30.4244237 132.335599,30.9566667 132.798644,31.3549437 C133.259901,31.7532208 133.828428,31.950549 134.506012,31.950549 C135.074538,31.950549 135.555463,31.8220141 135.948782,31.5649444 C136.340315,31.3078746 136.681788,30.9765805 136.974991,30.5728724 L139.399276,32.3705503 C138.845051,33.087449 138.144226,33.6414162 137.298587,34.0306414 C136.45116,34.4198668 135.575128,34.6153846 134.666915,34.6153846 C133.805187,34.6153846 132.993517,34.4741773 132.231905,34.1935729 C131.470294,33.9129687 130.8088,33.5128813 130.247424,32.9915004 C129.68605,32.4683092 129.244458,31.8419279 128.920863,31.1087362 C128.597267,30.3773546 128.436363,29.5590763 128.436363,28.6557114 C128.436363,27.7523467 128.597267,26.9340683 128.920863,26.2008764 C129.244458,25.469495 129.68605,24.8431137 130.247424,24.3199226 C130.8088,23.7985417 131.470294,23.3966438 132.231905,23.1160396 C132.993517,22.8354353 133.805187,22.6960383 134.666915,22.6960383 Z M177.645794,22.6958573 C178.507523,22.6958573 179.319194,22.8370646 180.080805,23.1176688 C180.842415,23.3982732 181.503909,23.7983606 182.065285,24.3197415 C182.62666,24.8429327 183.07004,25.469314 183.391847,26.2025058 C183.715442,26.9338873 183.878135,27.7521656 183.878135,28.6555304 C183.878135,29.5588953 183.715442,30.3771736 183.391847,31.1085551 C183.07004,31.8417469 182.62666,32.4699385 182.065285,32.9913194 C181.503909,33.5127003 180.842415,33.9127877 180.080805,34.1933919 C179.319194,34.4739963 178.507523,34.6152036 177.645794,34.6152036 C176.784064,34.6152036 175.972395,34.4739963 175.210783,34.1933919 C174.449172,33.9127877 173.787678,33.5127003 173.226303,32.9913194 C172.664928,32.4699385 172.221549,31.8417469 171.899741,31.1085551 C171.576145,30.3771736 171.415241,29.5588953 171.415241,28.6555304 C171.415241,27.7521656 171.576145,26.9338873 171.899741,26.2025058 C172.221549,25.469314 172.664928,24.8429327 173.226303,24.3197415 C173.787678,23.7983606 174.449172,23.3982732 175.210783,23.1176688 C175.972395,22.8370646 176.784064,22.6958573 177.645794,22.6958573 Z M158.965758,16.6673908 L158.965758,24.1912067 L159.012241,24.1912067 C159.412713,23.6462912 159.924028,23.2606865 160.547978,23.0343928 C161.17014,22.8099094 161.84236,22.6958573 162.566427,22.6958573 C163.365582,22.6958573 164.082497,22.8642199 164.713599,23.1991346 C165.342912,23.5340495 165.877469,23.981206 166.317273,24.5424146 C166.755288,25.1036232 167.093187,25.7462976 167.332755,26.4704376 C167.570535,27.1945777 167.690319,27.9549249 167.690319,28.7496686 C167.690319,29.6059644 167.559808,30.3934667 167.296999,31.1085551 C167.035977,31.8254538 166.662322,32.446404 166.177823,32.9677849 C165.693324,33.4891656 165.112282,33.8946841 164.436486,34.1825299 C163.758903,34.4703755 163.004442,34.6152036 162.173106,34.6152036 C161.774423,34.6152036 161.397192,34.5608931 161.043204,34.4522721 C160.689215,34.3418406 160.362045,34.2024437 160.061691,34.0304604 C159.761337,33.8602876 159.500315,33.6683904 159.276838,33.4583897 C159.05336,33.2483891 158.874578,33.0420092 158.735128,32.83925 L158.688645,32.83925 L158.688645,34.3345992 L155.504538,34.3345992 L155.504538,16.6673908 L158.965758,16.6673908 Z M106.74318,22.6973055 C107.404673,22.6973055 108.100135,22.8095473 108.831353,23.035841 C109.562572,23.2621349 110.197248,23.6549809 110.735382,24.2143791 L108.450548,26.6456795 C108.280705,26.3958512 108.042925,26.1894713 107.73542,26.0265397 C107.427915,25.8636082 107.097168,25.7821424 106.74318,25.7821424 C105.86536,25.7821424 105.184201,26.0464536 104.699701,26.5750759 C104.215202,27.1055085 103.973847,27.7988727 103.973847,28.6551683 C103.973847,29.5132744 104.215202,30.2066386 104.699701,30.7352609 C105.184201,31.2656935 105.86536,31.5300046 106.74318,31.5300046 C107.127561,31.5300046 107.458308,31.4449182 107.73542,31.2729349 C108.012532,31.1027619 108.250312,30.9000027 108.450548,30.6646572 L110.735382,33.0959576 C110.197248,33.6571662 109.562572,34.0500122 108.831353,34.276306 C108.100135,34.5007895 107.404673,34.6148415 106.74318,34.6148415 C105.88145,34.6148415 105.06978,34.4754445 104.308169,34.1948403 C103.546558,33.9142359 102.885064,33.5123382 102.323689,32.9909573 C101.760526,32.4695764 101.318934,31.8413849 100.995339,31.1100033 C100.673531,30.3768115 100.510839,29.5585332 100.510839,28.6551683 C100.510839,27.7518036 100.673531,26.9335253 100.995339,26.2021437 C101.318934,25.4689518 101.760526,24.8425706 102.323689,24.3211897 C102.885064,23.7979986 103.546558,23.3979112 104.308169,23.1173068 C105.06978,22.8367026 105.88145,22.6973055 106.74318,22.6973055 Z M87.6488901,16.6701471 L87.6488901,34.3391659 L84.1858829,34.3391659 L84.1858829,16.6701471 L87.6488901,16.6701471 Z M80.193681,17.7938315 L80.193681,21.1574623 L72.8314386,21.1574623 L72.8314386,24.5247138 L79.6394569,24.5247138 L79.6394569,27.8883447 L72.8314386,27.8883447 L72.8314386,34.3386228 L69.2307692,34.3386228 L69.2307692,17.7938315 L80.193681,17.7938315 Z M150.586603,22.6960383 C150.785051,22.6960383 150.985287,22.70509 151.185523,22.7195728 C151.385759,22.735866 151.569904,22.7666419 151.739746,22.813711 L151.739746,26.0144104 C151.493028,25.9365654 151.251672,25.8786341 151.012104,25.8388064 C150.774324,25.8007891 150.524029,25.7808753 150.263008,25.7808753 C149.601514,25.7808753 149.077683,25.8750135 148.693301,26.0614795 C148.308921,26.2479455 148.012142,26.5104464 147.804755,26.8453612 C147.597368,27.180276 147.461494,27.5803633 147.400708,28.0474337 C147.339922,28.5145041 147.307741,29.030454 147.307741,29.5898522 L147.307741,34.3347803 L143.846522,34.3347803 L143.846522,22.9766426 L147.307741,22.9766426 L147.307741,24.7996654 L147.354224,24.7996654 C147.724303,24.0990597 148.162319,23.5722478 148.67006,23.2210399 C149.177801,22.8716423 149.816053,22.6960383 150.586603,22.6960383 Z M190.894433,22.9759185 L192.880701,26.0607554 L194.795456,22.9759185 L198.649996,22.9759185 L195.002844,28.2585206 L199.318641,34.3340562 L195.23526,34.3340562 L192.787735,30.5486137 L190.157851,34.3340562 L186.117378,34.3340562 L190.549385,28.2585206 L186.811053,22.9759185 L190.894433,22.9759185 Z M117.542863,16.6666667 L117.542863,27.4635958 L121.374162,22.9775478 L125.622022,22.9775478 L121.166774,28.0954081 L125.736442,34.3338751 L121.374162,34.3338751 L117.589347,28.5860129 L117.542863,28.5860129 L117.542863,34.3338751 L114.081644,34.3338751 L114.081644,16.6666667 L117.542863,16.6666667 Z M96.0561285,22.9762805 L96.0561285,34.3344182 L92.5949091,34.3344182 L92.5949091,22.9762805 L96.0561285,22.9762805 Z M177.645794,25.7806941 C176.769762,25.7806941 176.088603,26.0468156 175.604104,26.5754379 C175.117817,27.1058706 174.87646,27.7992347 174.87646,28.6555304 C174.87646,29.5118262 175.117817,30.2070006 175.604104,30.7356229 C176.088603,31.2660555 176.769762,31.5303667 177.645794,31.5303667 C178.523614,31.5303667 179.202985,31.2660555 179.689272,30.7356229 C180.173772,30.2070006 180.415127,29.5118262 180.415127,28.6555304 C180.415127,27.7992347 180.173772,27.1058706 179.689272,26.5754379 C179.202985,26.0468156 178.523614,25.7806941 177.645794,25.7806941 Z M161.457978,25.7806941 C160.581946,25.7806941 159.900787,26.0468156 159.416288,26.5754379 C158.931788,27.1058706 158.688645,27.7992347 158.688645,28.6555304 C158.688645,29.5118262 158.931788,30.2070006 159.416288,30.7356229 C159.900787,31.2660555 160.581946,31.5303667 161.457978,31.5303667 C162.335797,31.5303667 163.016958,31.2660555 163.501456,30.7356229 C163.985955,30.2070006 164.227312,29.5118262 164.227312,28.6555304 C164.227312,27.7992347 163.985955,27.1058706 163.501456,26.5754379 C163.016958,26.0468156 162.335797,25.7806941 161.457978,25.7806941 Z M134.343321,25.2196667 C133.958938,25.2196667 133.621041,25.2830288 133.327838,25.4079431 C133.036424,25.5328572 132.786129,25.6921681 132.578742,25.8858755 C132.371355,26.0813933 132.208663,26.3076872 132.094242,26.5647569 C131.978035,26.8200163 131.913673,27.0897585 131.897583,27.3703627 L136.46725,27.3703627 C136.483341,26.7783782 136.290256,26.2714801 135.889785,25.8514788 C135.491101,25.4296673 134.974421,25.2196667 134.343321,25.2196667 Z M94.3255187,17.3678154 C94.8797429,17.3678154 95.3535153,17.5669538 95.7450478,17.9634206 C96.1383682,18.3616977 96.3350283,18.8396301 96.3350283,19.4008387 C96.3350283,19.9620473 96.1383682,20.4417901 95.7450478,20.8382568 C95.3535153,21.2365338 94.8797429,21.4338621 94.3255187,21.4338621 C93.7730824,21.4338621 93.2993101,21.2365338 92.9059897,20.8382568 C92.5144572,20.4417901 92.3177969,19.9620473 92.3177969,19.4008387 C92.3177969,18.8396301 92.5144572,18.3616977 92.9059897,17.9634206 C93.2993101,17.5669538 93.7730824,17.3678154 94.3255187,17.3678154 Z"/>
    <path fill="#FF3500" d="M38.4619799,38.4619799 L12.8200714,38.4619799 L12.8200714,12.8218372 L38.4619799,12.8218372 L38.4619799,38.4619799 Z M0,51.2820513 L51.2820513,51.2820513 L51.2820513,0 L0,0 L0,51.2820513 Z"/>
  </g>
</svg>
