<svg xmlns="http://www.w3.org/2000/svg" width="200" height="25" viewBox="0 0 200 25">
  <path d="M8.62222222,10.4 L8.35555556,10.3111111 C4.8,9.33333333 3.11111111,8.62222222 3.11111111,5.77777778 C3.11111111,3.37777778 4.53333333,2.04444444 6.93333333,2.04444444 C6.93333333,2.04444444 12,2.04444444 13.4222222,6.22222222 L13.5111111,6.4 L15.1111111,6.4 L15.1111111,0 L13.5111111,0 L12.8888889,2.31111111 C11.3777778,0.888888889 9.42222222,0 7.2,0 C3.02222222,0 0.0888888889,2.66666667 0.0888888889,6.48888889 C0.0888888889,10.7555556 3.64444444,12 7.64444444,12.9777778 C11.6444444,13.9555556 13.3333333,14.7555556 13.3333333,17.6888889 C13.3333333,20.2666667 11.2,21.5111111 9.33333333,21.5111111 C5.95555556,21.5111111 3.55555556,20.1777778 1.68888889,17.4222222 L1.6,17.2444444 L0,17.2444444 L0,23.6444444 L1.6,23.6444444 L2.31111111,20.8888889 C4.26666667,22.7555556 6.4,23.6444444 9.06666667,23.6444444 C13.3333333,23.6444444 16.3555556,20.7111111 16.3555556,16.8 C16.3555556,12.4444444 12.8,11.4666667 8.62222222,10.4 M19.6444444,4.88888889 L21.1555556,4.88888889 L21.2444444,4.44444444 C21.7777778,1.86666667 21.8666667,1.86666667 23.6444444,1.86666667 L27.7333333,1.86666667 L27.7333333,21.6888889 L25.5111111,21.6888889 L25.5111111,23.5555556 L33.2444444,23.5555556 L33.2444444,21.6888889 L31.1111111,21.6888889 L31.1111111,1.86666667 L35.1111111,1.86666667 C36.9777778,1.86666667 37.1555556,1.86666667 37.6888889,4.44444444 L37.7777778,4.88888889 L39.2888889,4.88888889 L39.2888889,0 L19.6444444,0 L19.6444444,4.88888889 Z M56.1777778,4.88888889 L57.6888889,4.88888889 L57.7777778,4.44444444 C58.3111111,1.86666667 58.4,1.86666667 60.1777778,1.86666667 L64.2666667,1.86666667 L64.2666667,21.6888889 L62.1333333,21.6888889 L62.1333333,23.5555556 L69.8666667,23.5555556 L69.8666667,21.6888889 L67.7333333,21.6888889 L67.7333333,1.86666667 L71.7333333,1.86666667 C73.6,1.86666667 73.7777778,1.86666667 74.3111111,4.44444444 L74.4,4.88888889 L75.9111111,4.88888889 L75.9111111,0 L56.1777778,0 L56.1777778,4.88888889 Z M43.8222222,0 L43.8222222,1.86666667 L46.0444444,1.86666667 L46.0444444,21.7777778 L43.8222222,21.7777778 L43.8222222,23.6444444 L51.5555556,23.6444444 L51.5555556,21.7777778 L49.4222222,21.7777778 L49.4222222,1.86666667 L51.5555556,1.86666667 L51.5555556,0 L43.8222222,0 Z M117.688889,0 L117.688889,1.86666667 L119.911111,1.86666667 L119.911111,11.5555556 L108.888889,11.5555556 L108.888889,1.86666667 L111.022222,1.86666667 L111.022222,0 L103.288889,0 L103.288889,1.86666667 L105.6,1.86666667 L105.6,21.7777778 L103.377778,21.7777778 L103.377778,23.6444444 L111.111111,23.6444444 L111.111111,21.7777778 L108.888889,21.7777778 L108.888889,13.4222222 L119.911111,13.4222222 L119.911111,21.7777778 L117.688889,21.7777778 L117.688889,23.6444444 L125.422222,23.6444444 L125.422222,21.7777778 L123.288889,21.7777778 L123.288889,1.86666667 L125.422222,1.86666667 L125.422222,0 L117.688889,0 Z M165.688889,0 L165.688889,1.86666667 L167.911111,1.86666667 L167.911111,21.7777778 L165.688889,21.7777778 L165.688889,23.6444444 L173.422222,23.6444444 L173.422222,21.7777778 L171.288889,21.7777778 L171.288889,1.86666667 L173.422222,1.86666667 L173.422222,0 L165.688889,0 Z M191.911111,0 L191.911111,1.86666667 L193.688889,1.86666667 L188.711111,9.06666667 L183.911111,1.86666667 L185.688889,1.86666667 L185.688889,0 L177.955556,0 L177.955556,1.86666667 L180.177778,1.86666667 L186.933333,11.9111111 L180.266667,21.7777778 L177.866667,21.7777778 L177.866667,23.6444444 L185.6,23.6444444 L185.6,21.7777778 L183.111111,21.7777778 L188.266667,14.0444444 L193.422222,21.7777778 L191.466667,21.7777778 L191.466667,23.6444444 L199.2,23.6444444 L199.2,21.7777778 L197.066667,21.7777778 L190.133333,11.2 L196.533333,1.86666667 L199.644444,1.86666667 L199.644444,0 L191.911111,0 Z M143.466667,1.86666667 L145.777778,1.86666667 L145.777778,21.6888889 L143.466667,21.6888889 L143.466667,23.5555556 L151.2,23.5555556 L151.2,21.6888889 L149.155556,21.6888889 L149.155556,13.3333333 L152.711111,13.3333333 C154.044444,13.3333333 154.133333,13.5111111 154.577778,14.8444444 L154.666667,15.0222222 L154.666667,15.2 L156.177778,15.2 L156.177778,9.33333333 L154.666667,9.33333333 L154.666667,9.51111111 C154.666667,9.68888889 154.577778,9.77777778 154.488889,9.86666667 C154.044444,10.9333333 153.866667,11.4666667 152.622222,11.4666667 L149.066667,11.4666667 L149.066667,1.86666667 L157.155556,1.86666667 C158.666667,1.86666667 159.022222,2.31111111 159.911111,4.53333333 L159.911111,4.71111111 L161.688889,4.71111111 L161.688889,0 L143.377778,0 L143.466667,1.86666667 Z M96.1777778,14.3111111 C95.4666667,18.9333333 92.9777778,21.5111111 89.1555556,21.5111111 C84.6222222,21.5111111 81.8666667,17.6888889 81.8666667,11.6444444 C81.8666667,5.86666667 84.6222222,2.13333333 88.8888889,2.13333333 C92.9777778,2.13333333 95.1111111,4.71111111 96.0888889,6.93333333 L96.1777778,7.11111111 L97.7777778,7.11111111 L97.7777778,0 L96,0 L95.3777778,2.48888889 C93.6888889,0.8 91.5555556,0 88.9777778,0 C82.9333333,0 78.3111111,5.06666667 78.3111111,11.8222222 C78.3111111,15.2888889 79.3777778,18.2222222 81.2444444,20.3555556 C83.1111111,22.4888889 85.7777778,23.5555556 88.7111111,23.5555556 C94.0444444,23.5555556 97.4222222,20.2666667 98.1333333,14.3111111 L98.1333333,14.0444444 L96.0888889,14.0444444 L96.0888889,14.3111111 L96.1777778,14.3111111 Z" transform="translate(0 .92)"/>
</svg>
