<svg xmlns="http://www.w3.org/2000/svg" width="120" height="61" viewBox="0 0 120 61">
  <g fill="none" transform="translate(.77 .38)">
    <g fill="#221E1F" transform="translate(.77 1.077)">
      <polygon points="89.846 22.462 89.846 31.231 98.462 31.231 98.462 58 107.385 58 107.385 31.231 116.154 31.231 116.154 22.462"/>
      <polygon points="21.846 22.462 21.846 41.385 9.846 22.462 .769 22.462 .769 58 9.692 58 9.692 38.462 22 58 30.615 58 30.615 22.462"/>
      <polygon points="32.615 58 54.769 58 54.769 49.231 41.538 49.231 41.538 44.462 54.769 44.462 54.769 35.846 41.538 35.846 41.538 31.231 54.769 31.231 54.769 22.462 32.615 22.462"/>
      <polygon points="76.615 22.462 88.308 22.462 82.308 31.846"/>
      <polygon points="76.615 58 88.308 58 82.308 48.615"/>
      <path d="M5.07692308,5.38461538 L5.07692308,4.46153846 C5.16936047,3.70097532 5.85308066,3.15399917 6.61538462,3.23076923 C7.03055903,3.20581261 7.43654145,3.35986882 7.73064401,3.65397138 C8.02474656,3.94807394 8.17880277,4.35405635 8.15384615,4.76923077 L8.15384615,5.84615385 L12.3076923,5.84615385 L12.3076923,4.61538462 C12.3076923,1.07692308 9.07692308,0.461538462 6.76923077,0.461538462 C3.84615385,0.461538462 1.53846154,1.38461538 1.07692308,4.15384615 C0.922878152,4.8635318 0.922878152,5.59800666 1.07692308,6.30769231 C1.69230769,9.69230769 7.53846154,10.7692308 8.30769231,12.7692308 C8.46216395,13.1649466 8.46216395,13.6042842 8.30769231,14 C8.24833467,14.3885217 8.03609935,14.7371829 7.71824196,14.9683519 C7.40038458,15.1995209 7.00329381,15.2940059 6.61538462,15.2307692 C6.19397701,15.2808928 5.77285644,15.1349971 5.47277583,14.8349165 C5.17269522,14.5348359 5.0267995,14.1137153 5.07692308,13.6923077 L5.07692308,12.1538462 L0.769230769,12.1538462 L0.769230769,13.3846154 C0.769230769,17.0769231 3.69230769,18.1538462 6.76923077,18.1538462 C9.69230769,18.1538462 12.1538462,17.0769231 12.6153846,14.3076923 C12.7004009,13.4379701 12.7004009,12.5620299 12.6153846,11.6923077 C11.8461538,8.15384615 5.53846154,7.23076923 5.07692308,5.38461538 M58.7692308,5.38461538 C58.6153846,5.07692308 58.7692308,4.76923077 58.7692308,4.61538462 C58.8616682,3.85482148 59.5453884,3.30784532 60.3076923,3.38461538 C60.7228667,3.35965877 61.1288491,3.51371498 61.4229517,3.80781753 C61.7170543,4.10192009 61.8711105,4.50790251 61.8461538,4.92307692 L61.8461538,6 L65.8461538,6 L65.8461538,4.76923077 C65.8461538,1.23076923 62.6153846,0.615384615 60.3076923,0.615384615 C57.3846154,0.615384615 55.0769231,1.53846154 54.6153846,4.15384615 C54.4613397,4.8635318 54.4613397,5.59800666 54.6153846,6.30769231 C55.3846154,9.69230769 61.0769231,10.6153846 62,12.7692308 C62.1544716,13.1649466 62.1544716,13.6042842 62,14 C61.9406424,14.3885217 61.728407,14.7371829 61.4105497,14.9683519 C61.0926923,15.1995209 60.6956015,15.2940059 60.3076923,15.2307692 C59.8862847,15.2808928 59.4651641,15.1349971 59.1650835,14.8349165 C58.8650029,14.5348359 58.7191072,14.1137153 58.7692308,13.6923077 L58.7692308,12.1538462 L54.4615385,12.1538462 L54.4615385,13.3846154 C54.4615385,17.0769231 57.3846154,18.1538462 60.3076923,18.1538462 C63.3846154,18.1538462 65.6923077,17.0769231 66.1538462,14.4615385 C66.3238624,13.5980327 66.3238624,12.7096596 66.1538462,11.8461538 C65.3846154,8.15384615 59.2307692,7.23076923 58.7692308,5.38461538 M96.1538462,14.3076923 L92.3076923,1.07692308 L86.1538462,1.07692308 L86.1538462,17.3846154 L90.1538462,17.3846154 L90,3.69230769 L94.1538462,17.3846154 L100,17.3846154 L100,1.07692308 L96,1.07692308 L96.1538462,14.3076923 Z M18.4615385,1.07692308 L15.3846154,17.5384615 L20,17.5384615 L22.3076923,2.30769231 L24.4615385,17.5384615 L28.7692308,17.5384615 L25.6923077,1.07692308 L18.4615385,1.07692308 Z M43.3846154,1.07692308 L41.2307692,14 L39.0769231,1.07692308 L32.4615385,1.07692308 L32.1538462,17.5384615 L36.3076923,17.5384615 L36.4615385,2.30769231 L39.3846154,17.5384615 L43.5384615,17.5384615 L46.4615385,2.30769231 L46.6153846,17.5384615 L50.6153846,17.5384615 L50,1.07692308 L43.3846154,1.07692308 Z M81.6923077,1.07692308 L77.5384615,1.07692308 L77.5384615,14 C77.3627471,14.7765433 76.6390584,15.3028624 75.8461538,15.2307692 C74.6153846,15.2307692 74.3076923,14.4615385 74.3076923,14 L74.3076923,1.07692308 L70,1.07692308 L70,14 C70.3076923,17.0769231 72.7692308,18 75.8461538,18 C78.9230769,18 81.2307692,16.9230769 81.5384615,13.8461538 L81.5384615,12.7692308 L81.6923077,1.07692308 L81.6923077,1.07692308 Z M110.307692,8.15384615 L110.307692,10.6153846 L112,10.6153846 L112,13.6923077 C111.824286,14.468851 111.100597,14.99517 110.307692,14.9230769 C109.076923,14.9230769 108.615385,14.1538462 108.615385,13.6923077 L108.615385,5.53846154 C108.575123,5.27194963 108.629562,4.99975658 108.769231,4.76923077 C108.995623,4.0274002 109.686044,3.52527645 110.461538,3.53846154 C111.692308,3.53846154 112.153846,4.30769231 112.153846,4.76923077 L112.153846,6.46153846 L116.307692,6.46153846 L116.307692,4.76923077 C116,1.69230769 113.384615,0.769230769 110.461538,0.769230769 C107.538462,0.769230769 105.076923,1.84615385 104.615385,4.76923077 C104.615385,4.92307692 104.461538,5.53846154 104.461538,5.84615385 L104.461538,12.7692308 C104.446832,13.1345776 104.498969,13.4995387 104.615385,13.8461538 C104.769231,16.7692308 107.538462,17.8461538 110.461538,17.8461538 C113.384615,17.8461538 116,16.7692308 116.307692,13.8461538 C116.257254,13.4798559 116.310554,13.1067541 116.461538,12.7692308 L116.461538,8.15384615 L110.307692,8.15384615 Z"/>
    </g>
    <polygon fill="#78C7FE" points="77.846 41.385 77.846 41.385 77.846 41.231 66.615 23.538 56.615 23.538 67.231 41.231 67.231 41.385 56.615 59.077 66.615 59.077"/>
  </g>
</svg>
