<svg xmlns="http://www.w3.org/2000/svg" xmlns:xlink="http://www.w3.org/1999/xlink" width="201" height="31" viewBox="0 0 201 31">
  <defs>
    <path id="logo-airship-a" d="M31.3336647,1.73818102 L34.0020531,4.37125511 L26.622062,12.1021031 C23.4080952,8.2009603 18.5585524,5.72715368 13.253073,5.72715368 C7.9477867,5.70691639 3.25299187,8.2009603 0.0392182771,12.1021031 C4.9243087,4.83610571 12.9507252,0 22.0793105,0 C25.3119706,0 28.4114604,0.59545641 31.28452,1.68670062 L31.3336647,1.73818102 Z"/>
  </defs>
  <g fill="none" fill-rule="evenodd">
    <g fill="#020202" fill-rule="nonzero" transform="translate(53.165 5.116)">
      <path d="M142.901588,6.80399012 C142.901588,8.27674741 141.713151,9.46964777 140.247224,9.46964777 L137.023721,9.46964777 L137.023721,3.9563016 L140.247224,3.9563016 C141.713151,3.9563016 142.901588,5.14961475 142.901588,6.62237206 L142.901588,6.80399012 Z M140.247224,0.280187122 L133.364161,0.280187122 L133.364161,18.6595212 L137.023721,18.6595212 L137.023721,13.1457623 L140.247224,13.1457623 C143.734464,13.1457623 146.561148,10.3063291 146.561148,6.80399012 L146.561148,6.62237206 C146.561148,3.11962025 143.734464,0.280187122 140.247224,0.280187122 L140.247224,0.280187122 Z"/>
      <polygon points="118.061 18.66 121.72 18.66 121.72 .28 118.061 .28"/>
      <polygon points="103.226 .28 103.226 7.764 96.628 7.764 96.628 .28 92.969 .28 92.969 18.66 96.628 18.66 96.628 11.44 103.226 11.44 103.226 18.66 106.886 18.66 106.886 .28"/>
      <path d="M79.2531965,9.21670337 C78.7241037,8.81219045 78.1298853,8.48362684 77.4846993,8.23926802 C76.8338503,7.99243258 76.1999902,7.76293341 75.6037495,7.56026415 C75.1992441,7.42900387 74.8186042,7.29526692 74.4703251,7.16235553 C74.1345861,7.03357182 73.8380835,6.88910294 73.5921442,6.73307653 C73.3421599,6.5758118 73.1488061,6.38635114 73.0169378,6.1733627 C72.885878,5.95748488 72.8183253,5.68629611 72.8183253,5.3672262 C72.8183253,4.99532196 72.9028673,4.68409466 73.0691185,4.44386351 C73.2333481,4.20734727 73.4380278,4.0116951 73.6799222,3.86062191 C73.921007,3.71202532 74.1960705,3.60965878 74.4950001,3.55682444 C74.7906938,3.50481563 75.0851736,3.47839846 75.373181,3.47839846 C75.9334213,3.47839846 76.5207631,3.62328013 77.1218577,3.90850303 C77.6982778,4.1809301 78.1755946,4.5507705 78.5432896,5.00729224 L81.1826874,2.16579527 C80.4157452,1.46367639 79.5149114,0.923362684 78.5044575,0.559713814 C77.4685189,0.188635113 76.4406708,0 75.4480146,0 C74.6191833,0 73.7879249,0.10690699 72.9781051,0.318244359 C72.1678811,0.52916896 71.4316811,0.865987891 70.7877084,1.32085856 C70.1453541,1.77614199 69.6190925,2.36268575 69.2246998,3.067694 C68.8307118,3.77270225 68.6308861,4.63291139 68.6308861,5.62396809 C68.6308861,6.43010456 68.7599232,7.12396809 69.0143572,7.68574574 C69.2683864,8.24752338 69.6097888,8.73128784 70.0292609,9.12424328 C70.4491376,9.52050084 70.9349486,9.84947714 71.4688958,10.1000275 C72.010124,10.3551183 72.569959,10.578426 73.1334353,10.7637589 C73.7341257,10.9565218 74.2474428,11.1286461 74.7041295,11.2896257 C75.1660744,11.453082 75.5596581,11.6371766 75.8731501,11.8348927 C76.1878553,12.0346726 76.4346031,12.2608695 76.6077316,12.5068795 C76.783287,12.7566043 76.8722782,13.0632911 76.8722782,13.4186846 C76.8722782,13.7860484 76.8014896,14.1075949 76.6635536,14.3738305 C76.5227853,14.6400661 76.3338812,14.8551183 76.1012911,15.0132086 C75.8674866,15.1721244 75.5928279,15.2881122 75.2862126,15.3566318 C74.9808111,15.4259769 74.6636789,15.4614749 74.3433107,15.4614749 C73.63219,15.4614749 72.9073165,15.2728398 72.1889154,14.9021739 C71.499638,14.5467804 70.9292856,14.0993396 70.4940375,13.5726472 L67.7773797,16.3926802 C68.5479626,17.1959273 69.5212024,17.8258118 70.6732337,18.2649972 C71.8491304,18.7124381 73.0844899,18.9390479 74.3433107,18.9390479 C75.2053118,18.9390479 76.0523458,18.8193451 76.8621656,18.582416 C77.6715806,18.3475509 78.3992859,17.9801871 79.0254603,17.4927078 C79.65123,17.0056412 80.1564573,16.3794716 80.5269839,15.6315355 C80.8975112,14.8844249 81.0843925,13.98459 81.0843925,12.9567969 C81.0843925,12.0681068 80.910455,11.3156301 80.5674346,10.7228949 C80.2211782,10.1268575 79.7786491,9.62039073 79.2531965,9.21670337 M50.8264211,9.46985417 L47.6025135,9.46985417 L47.6025135,3.95609521 L50.8264211,3.95609521 C52.2923486,3.95609521 53.4803808,5.14940836 53.4803808,6.62216566 L53.4803808,6.80378371 C53.4803808,8.27654101 52.2923486,9.46985417 50.8264211,9.46985417 M50.8264211,0.279980738 L44.1423747,0.279980738 L43.9429536,18.6593148 L47.6025135,18.6593148 L47.6025135,13.1459686 L50.3070363,13.1459686 L52.9347031,18.7753027 L57.1156704,18.8008943 L53.9706413,12.2704871 C54.3342916,12.0484177 54.7165492,11.7908503 54.7776295,11.7400798 C56.2791534,10.526541 57.1399407,8.72687122 57.1399407,6.80378371 L57.1399407,6.62216566 C57.1399407,3.11941387 54.3132573,0.279980738 50.8264211,0.279980738"/>
      <polygon points="28.373 18.66 32.033 18.66 32.033 .28 28.373 .28"/>
      <path d="M6.67393379,11.2863649 L8.96019804,4.691153 L8.96788368,4.71055311 L9.06294243,4.98298019 L11.2642605,11.2863649 L6.67393379,11.2863649 Z M13.8385326,18.6592322 L17.9563971,18.6592322 L11.3702409,0.279898184 L6.59465075,0.279898184 L-7.93405759e-15,18.6592322 L4.11705548,18.6592322 L5.51219444,14.6368052 L12.430854,14.628137 L13.8385326,18.6592322 Z"/>
    </g>
    <path fill="#0034B3" fill-rule="nonzero" d="M0,21.4865559 L20.8079972,0.0531858313 L39.0760913,18.870342 L41.7721519,21.4863548 L34.3156276,29.1671099 C31.0683308,25.291245 26.1684964,22.8334677 20.8079972,22.8334677 C15.4476931,22.8133615 10.7042115,25.291245 7.45710992,29.1671099 L0,21.4865559 Z M22.9633621,10.967816 C22.9633621,9.77391211 22.0236839,8.80620251 20.8647995,8.80620251 C19.7057199,8.80620251 18.7662368,9.77391211 18.7662368,10.967816 C18.7662368,12.161921 19.7057199,13.1298317 20.8647995,13.1298317 C22.0236839,13.1298317 22.9633621,12.161921 22.9633621,10.967816 Z"/>
    <path fill="#004BFF" fill-rule="nonzero" d="M39.2405063,18.8191952 C36.3217292,17.7350218 33.1729188,17.1434238 29.888819,17.1434238 C20.6149752,17.1434238 12.4608384,21.9481933 7.49801397,29.1671099 L0,21.4865559 L20.9221341,0.0531858313 L39.2405063,18.8191952 Z M23.0893217,10.967816 C23.0893217,9.77391211 22.1444892,8.80620251 20.979248,8.80620251 C19.8138105,8.80620251 18.8691742,9.77391211 18.8691742,10.967816 C18.8691742,12.161921 19.8138105,13.1298317 20.979248,13.1298317 C22.1444892,13.1298317 23.0893217,12.161921 23.0893217,10.967816 Z"/>
    <g transform="translate(7.595 16.509)">
      <mask id="logo-airship-b" fill="#fff">
        <use xlink:href="#logo-airship-a"/>
      </mask>
      <g mask="url(#logo-airship-b)" opacity=".5">
        <path fill="#000" fill-rule="nonzero" d="M39.0019556,18.9479204 C36.128896,17.8566762 33.0294063,17.2612198 29.7967462,17.2612198 C20.6681609,17.2612198 12.6417444,22.0973255 7.75665397,29.3633229 L0.37608332,21.6326773 L20.9705087,0.0595214614 L39.0019556,18.9479204 L39.0019556,18.9479204 Z" transform="translate(-7.717 -17.261)"/>
      </g>
    </g>
  </g>
</svg>
