<svg xmlns="http://www.w3.org/2000/svg" width="200" height="35" viewBox="0 0 200 35">
  <g fill="none">
    <path fill="#3F4457" d="M153.24263 28.0272109L141.723356 28.0272109C142.176871 29.478458 144.036281 30.1133787 145.396825 30.1133787 146.909159 30.151166 148.391701 29.6888679 149.614512 28.7981859L152.60771 32.154195C150.543625 33.9687968 147.872263 34.9402012 145.124717 34.8752834 139.909297 34.8752834 135.510204 32.2902494 135.510204 26.3038549 135.510204 20.3174603 140.226757 17.6417234 144.671202 17.6417234 150.566893 17.6870748 154.648526 21.5419501 153.24263 28.0272109zM147.755102 24.0816327C147.346939 20.2721088 142.176871 20.4535147 141.768707 24.0816327L147.755102 24.0816327zM115.147392 10.6575964C116.643991 10.6575964 118.231293 11.5646259 118.231293 13.4240363 118.231293 15.2380952 116.689342 16.1451247 115.147392 16.1451247 113.605442 16.1451247 112.063492 15.2380952 112.063492 13.4240363 112.063492 11.5646259 113.605442 10.6575964 115.147392 10.6575964z"/>
    <rect width="6.168" height="16.19" x="112.063" y="17.914" fill="#3F4457"/>
    <path fill="#3F4457" d="M17.7324263 18.0498866C16.3062863 16.7532901 14.4444028 16.0409173 12.5170068 16.0544218 8.79818594 16.0544218 6.39455782 18.276644 6.39455782 22.7210884 6.39455782 25.6689342 7.93650794 29.2517007 12.5170068 29.2517007 13.7414966 29.2517007 15.600907 29.0249433 16.9160998 28.0725624L16.9160998 25.1247166 11.1111111 25.1247166 11.1111111 20.1360544 22.2675737 20.1360544 22.2675737 30.2494331C20.8163265 33.1519274 16.8707483 34.6938776 12.4716553 34.6938776 3.44671202 34.6938776-6.44483207e-15 28.6621315-6.44483207e-15 22.7210884-6.44483207e-15 16.7346939 3.90022676 10.6122449 12.4716553 10.6122449 15.6462585 10.6122449 18.4580499 11.2471655 21.4512472 14.2857143L17.7324263 18.0498866zM42.8571429 26.0770975C42.8571429 31.9274376 38.185941 34.4671202 33.6507937 34.4671202 29.0249433 34.4671202 24.4444444 31.9274376 24.4444444 26.0770975 24.4444444 20.0907029 28.9795918 17.6417234 33.6507937 17.6417234 38.4580499 17.6417234 42.8571429 20.2267574 42.8571429 26.0770975zM37.0068027 26.0770975C37.0068027 24.2176871 35.7823129 22.5396825 33.6961451 22.5396825 31.5646259 22.5396825 30.3854875 24.2176871 30.3854875 26.0770975 30.3854875 27.9365079 31.6099773 29.569161 33.6961451 29.569161 35.69161 29.569161 37.0068027 28.0272109 37.0068027 26.0770975L37.0068027 26.0770975zM62.9931973 26.0770975C62.9931973 31.9274376 58.3219955 34.4671202 53.7868481 34.4671202 49.1609977 34.4671202 44.5804989 31.9274376 44.5804989 26.0770975 44.5804989 20.0907029 49.1156463 17.6417234 53.7868481 17.6417234 58.5941043 17.6417234 62.9931973 20.2267574 62.9931973 26.0770975zM57.1428571 26.0770975C57.1428571 24.2176871 55.9183673 22.5396825 53.8321995 22.5396825 51.7006803 22.5396825 50.521542 24.2176871 50.521542 26.0770975 50.521542 27.9365079 51.7460317 29.569161 53.8321995 29.569161 55.8276644 29.569161 57.1428571 28.0272109 57.1428571 26.0770975zM77.0975057 11.292517L83.0839002 11.292517 83.0839002 34.1043084 77.7324263 34.1043084 77.4603175 32.3809524C76.0997732 33.9229025 73.9229025 34.5124717 72.154195 34.4217687 67.4376417 34.1496599 64.8072562 31.1564626 64.8072562 26.0770975 64.8072562 21.1337868 67.9365079 17.6870748 72.6077098 17.6870748 74.6485261 17.6870748 76.1904762 18.3219955 77.0521542 19.4104308L77.0521542 11.292517 77.0975057 11.292517zM70.7482993 26.0770975C70.7482993 28.3446712 72.1995465 29.6145125 73.968254 29.6145125 74.8455319 29.6127269 75.6843225 29.2540706 76.2916886 28.6210413 76.8990546 27.9880119 77.2227102 27.1351044 77.1882086 26.2585034 77.1882086 24.30839 76.0997732 22.5396825 73.968254 22.5396825 72.1995465 22.4943311 70.7482993 23.8095238 70.7482993 26.0770975z"/>
    <polygon fill="#3F4457" points="101.678 34.15 101.678 25.533 93.469 25.533 93.469 34.15 87.029 34.15 87.029 11.338 93.469 11.338 93.469 20 101.678 20 101.678 11.338 108.073 11.338 108.073 34.15"/>
    <path fill="#3F4457" d="M127.07483,18.0045351 L127.437642,19.7732426 C128.244858,18.3975409 129.744094,17.5781906 131.337868,17.6417234 C132.918881,17.6226321 134.440302,18.244288 135.555556,19.3650794 L133.151927,23.7188209 C132.406017,23.05025 131.432133,22.6931592 130.430839,22.7210884 C128.93424,22.7210884 127.664399,23.6281179 127.664399,25.7596372 L127.664399,34.1496599 L121.678005,34.1496599 L121.678005,18.0045351 L127.07483,18.0045351 Z"/>
    <path fill="#81C045" d="M199.863946,0.0453514739 C199.818594,0 199.818594,0 199.773243,0 L165.941043,0 C165.867735,0.00425052 165.809239,0.0627463861 165.804989,0.136054422 L165.804989,26.7120181 C165.804989,26.7573696 165.85034,26.8027211 165.895692,26.8480726 C165.945564,26.8542714 165.995567,26.8376037 166.031746,26.8027211 L166.077098,26.7573696 C167.891156,24.2176871 170.884354,20 173.605442,20.1814059 C176.235828,20.3628118 178.14059,22.7664399 179.68254,24.6712018 C180.200937,25.3687025 180.777447,26.0210692 181.405896,26.6213152 C181.84093,27.0122775 182.408426,27.2230618 182.993197,27.2108844 C183.378574,27.2137405 183.761738,27.1524342 184.126984,27.0294785 C189.115646,25.3514739 197.23356,13.0612245 199.909297,0.22675737 C199.909297,0.136054422 199.909297,0.0907029478 199.863946,0.0453514739 Z"/>
    <path fill="#46853E" d="M175.782313 29.9319728C174.058957 27.4376417 172.743764 26.3492063 171.655329 26.3492063L171.655329 26.3492063C168.93424 26.3492063 166.984127 31.2018141 166.031746 33.5147392 165.979792 33.6544204 165.919206 33.7907376 165.85034 33.9229025L165.85034 34.0589569C165.85034 34.1043084 165.895692 34.1043084 165.941043 34.1043084L180.045351 34.1043084C180.090703 34.1043084 180.136054 34.0589569 180.181406 34.0136054 180.187605 33.9637329 180.170937 33.9137297 180.136054 33.877551 178.444935 32.8540979 176.966765 31.5145065 175.782313 29.9319728L175.782313 29.9319728zM199.818594 23.9002268C199.768722 23.8940279 199.718718 23.9106956 199.68254 23.9455782 195.600907 28.8888889 191.791383 32.244898 188.435374 33.877551 188.390023 33.9229025 188.344671 33.968254 188.390023 34.0136054 188.390023 34.0589569 188.435374 34.1043084 188.526077 34.1043084L199.818594 34.1043084C199.891902 34.1000579 199.950398 34.041562 199.954649 33.968254L199.954649 24.0362812 199.818594 23.9002268z"/>
  </g>
</svg>
